<svg width="398" height="90" viewBox="0 0 398 90" fill="none" xmlns="http://www.w3.org/2000/svg">
<path d="M124.702 89.1295C123.104 89.1295 121.439 88.963 119.707 88.63C117.976 88.297 116.277 87.8308 114.612 87.2314C113.014 86.5654 111.582 85.7995 110.317 84.9337C109.118 84.0679 108.219 83.1022 107.619 82.0366C107.286 81.3706 107.087 80.7711 107.02 80.2383C106.953 79.6389 107.053 79.0728 107.32 78.54C107.586 78.0072 107.986 77.4744 108.518 76.9416C109.185 76.1424 109.851 75.7761 110.517 75.8427C111.183 75.8427 112.015 76.2756 113.014 77.1414C113.747 77.6076 114.612 78.1404 115.611 78.7398C116.61 79.2726 117.643 79.7721 118.708 80.2383C119.774 80.6379 120.84 81.0042 121.905 81.3373C123.037 81.6037 124.136 81.7369 125.202 81.7369C128.266 81.7369 130.73 81.1708 132.595 80.0385C134.459 78.8397 135.392 77.2746 135.392 75.3432C135.392 74.211 135.159 73.2453 134.693 72.4461C134.226 71.6469 133.594 70.9808 132.794 70.448C131.995 69.8486 131.096 69.3491 130.097 68.9495C129.098 68.5499 127.966 68.1836 126.7 67.8506C125.502 67.451 124.303 67.0847 123.104 66.7517C121.306 66.2855 119.541 65.7527 117.809 65.1533C116.078 64.5539 114.513 63.788 113.114 62.8556C111.715 61.8566 110.583 60.6244 109.717 59.1592C108.851 57.6274 108.419 55.696 108.419 53.365C108.419 50.6343 109.118 48.27 110.517 46.272C111.915 44.274 113.88 42.7422 116.411 41.6765C118.942 40.5443 121.905 39.9782 125.302 39.9782C126.767 39.9782 128.132 40.0781 129.398 40.2779C130.663 40.4777 131.862 40.8107 132.994 41.2769C134.193 41.6765 135.325 42.176 136.391 42.7755C137.456 43.3083 138.489 43.9743 139.488 44.7735C140.687 45.5727 141.319 46.4385 141.386 47.3709C141.453 48.3033 141.086 49.269 140.287 50.268C139.688 51.1338 139.022 51.6999 138.289 51.9664C137.556 52.1662 136.824 51.9663 136.091 51.3669C135.026 50.5677 133.893 49.8684 132.695 49.269C131.496 48.6696 130.264 48.1701 128.998 47.7705C127.733 47.3709 126.434 47.1711 125.102 47.1711C123.437 47.1711 121.939 47.4375 120.607 47.9703C119.341 48.4365 118.342 49.1691 117.609 50.1681C116.943 51.1005 116.61 52.1662 116.61 53.365C116.61 54.4306 116.877 55.2964 117.41 55.9624C118.009 56.6284 118.742 57.1945 119.608 57.6607C120.54 58.1269 121.606 58.5598 122.804 58.9594C124.07 59.2924 125.368 59.6254 126.7 59.9584C128.632 60.4246 130.597 60.9907 132.595 61.6567C134.659 62.2562 136.491 63.0887 138.089 64.1543C139.754 65.1533 141.086 66.5186 142.085 68.2502C143.151 69.9152 143.684 72.1464 143.684 74.9436C143.684 79.3392 141.952 82.8025 138.489 85.3333C135.026 87.8641 130.43 89.1295 124.702 89.1295Z" fill="white"/>
<path d="M193.67 88.63C190.54 88.63 187.876 88.3303 185.678 87.7309C183.547 87.1315 181.782 86.1991 180.383 84.9337C178.985 83.6683 177.986 82.0366 177.386 80.0385C176.787 77.9739 176.487 75.4431 176.487 72.4461V28.2898C176.487 27.3574 176.587 26.5582 176.787 25.8922C176.987 25.2262 177.386 24.7267 177.986 24.3937C178.585 23.9941 179.517 23.7943 180.783 23.7943C182.048 23.7943 183.014 23.9941 183.68 24.3937C184.346 24.7267 184.779 25.2262 184.979 25.8922C185.178 26.4916 185.278 27.2575 185.278 28.1899V72.4461C185.278 74.1777 185.412 75.5763 185.678 76.6419C186.011 77.6409 186.477 78.4068 187.077 78.9396C187.743 79.4724 188.608 79.8054 189.674 79.9386C190.74 80.0718 192.038 80.1384 193.57 80.1384C194.636 80.1384 195.502 80.2383 196.168 80.4381C196.834 80.6379 197.333 81.0375 197.666 81.637C197.999 82.2364 198.166 83.1355 198.166 84.3343C198.166 85.5997 197.966 86.5654 197.566 87.2314C197.233 87.8308 196.7 88.1971 195.968 88.3303C195.302 88.5301 194.536 88.63 193.67 88.63ZM171.292 41.3768L180.883 41.4767L194.769 41.2769C195.701 41.2769 196.501 41.3768 197.167 41.5766C197.833 41.7098 198.332 42.1094 198.665 42.7755C199.065 43.3749 199.265 44.3073 199.265 45.5727C199.265 46.8381 199.098 47.8038 198.765 48.4698C198.432 49.0692 197.933 49.4688 197.267 49.6686C196.601 49.8684 195.801 49.9683 194.869 49.9683L181.182 49.7685L171.092 49.8684C169.694 49.8684 168.728 49.5354 168.195 48.8694C167.729 48.2034 167.496 47.1045 167.496 45.5727C167.496 44.1075 167.796 43.0419 168.395 42.3759C168.995 41.7098 169.96 41.3768 171.292 41.3768Z" fill="white"/>
<path d="M230.132 88.63C228.866 88.63 227.9 88.4302 227.234 88.0306C226.568 87.6976 226.136 87.1981 225.936 86.5321C225.803 85.7995 225.736 84.967 225.736 84.0346V22.4955C225.736 21.5631 225.836 20.7639 226.036 20.0979C226.235 19.4319 226.668 18.9324 227.334 18.5994C228 18.1998 228.966 18 230.231 18C231.564 18 232.529 18.1998 233.129 18.5994C233.795 18.9324 234.194 19.4319 234.327 20.0979C234.527 20.7639 234.627 21.5964 234.627 22.5954V47.271C236.226 45.4062 238.157 43.7412 240.421 42.2759C242.752 40.8107 245.583 40.0781 248.913 40.0781C252.842 40.0781 256.339 41.0105 259.403 42.8754C262.533 44.6736 264.997 47.2377 266.795 50.5677C268.66 53.8978 269.592 57.8605 269.592 62.456V84.1345C269.592 85.0669 269.493 85.8661 269.293 86.5321C269.093 87.1981 268.693 87.6976 268.094 88.0306C267.495 88.4302 266.529 88.63 265.197 88.63C263.931 88.63 262.966 88.4302 262.3 88.0306C261.634 87.6976 261.201 87.1981 261.001 86.5321C260.801 85.7995 260.701 84.967 260.701 84.0346V62.3561C260.701 59.5588 260.235 57.1279 259.303 55.0633C258.37 52.9987 256.972 51.4002 255.107 50.268C253.309 49.1358 251.011 48.5697 248.214 48.5697C244.417 48.5697 241.287 49.6686 238.823 51.8665C236.425 53.9977 235.027 56.8615 234.627 60.4579V84.1345C234.627 85.0669 234.527 85.8661 234.327 86.5321C234.128 87.1981 233.695 87.6976 233.029 88.0306C232.429 88.4302 231.464 88.63 230.132 88.63Z" fill="white"/>
<path d="M302.276 88.63C301.01 88.63 300.045 88.4302 299.379 88.0306C298.779 87.6976 298.38 87.1981 298.18 86.5321C298.047 85.7995 297.98 84.967 297.98 84.0346V44.6736C297.98 43.6746 298.08 42.8421 298.28 42.176C298.479 41.51 298.879 41.0438 299.479 40.7774C300.078 40.4444 301.044 40.2779 302.376 40.2779C303.574 40.2779 304.474 40.4444 305.073 40.7774C305.739 41.0438 306.172 41.4767 306.372 42.0761C306.638 42.609 306.771 43.2417 306.771 43.9743L306.372 46.9713C306.838 46.1055 307.371 45.2397 307.97 44.3739C308.636 43.5081 309.435 42.7422 310.368 42.0761C311.367 41.3435 312.532 40.7441 313.864 40.2779C315.263 39.8117 316.961 39.5786 318.959 39.5786C319.958 39.5786 320.891 39.6785 321.756 39.8783C322.689 40.0115 323.555 40.2446 324.354 40.5776C325.22 40.9106 325.952 41.3102 326.552 41.7764C327.151 42.1761 327.617 42.6423 327.95 43.1751C328.35 43.6413 328.55 44.2074 328.55 44.8734C328.55 46.3386 328.084 47.604 327.151 48.6696C326.219 49.6686 325.253 50.1681 324.254 50.1681C323.388 50.1681 322.755 50.0682 322.356 49.8684C321.956 49.602 321.557 49.3356 321.157 49.0692C320.824 48.8028 320.325 48.5697 319.659 48.3699C318.993 48.1035 317.927 47.9703 316.462 47.9703C315.463 47.9703 314.397 48.1701 313.265 48.5697C312.199 48.9693 311.167 49.5687 310.168 50.3679C309.169 51.1005 308.336 52.0663 307.67 53.2651C307.071 54.4639 306.771 55.8625 306.771 57.4609V84.2344C306.771 85.1668 306.671 85.966 306.472 86.632C306.272 87.298 305.839 87.7975 305.173 88.1305C304.573 88.4635 303.608 88.63 302.276 88.63Z" fill="white"/>
<path d="M393.119 88.5301C391.653 88.5301 390.588 88.2304 389.922 87.631C389.322 87.0316 388.956 86.0992 388.823 84.8338L389.222 79.8387C388.556 80.9043 387.524 82.1365 386.125 83.5351C384.727 84.8671 382.895 86.0659 380.631 87.1315C378.366 88.1305 375.603 88.63 372.339 88.63C369.142 88.63 366.145 87.9973 363.348 86.7319C360.617 85.4665 358.186 83.7016 356.055 81.4372C353.991 79.1727 352.359 76.5753 351.16 73.6449C350.028 70.7144 349.462 67.5842 349.462 64.2542C349.462 60.9907 350.028 57.9271 351.16 55.0633C352.359 52.1329 354.024 49.5687 356.155 47.3709C358.286 45.1731 360.717 43.4415 363.448 42.176C366.245 40.9106 369.209 40.2779 372.339 40.2779C375.27 40.2779 377.767 40.6775 379.832 41.4767C381.896 42.2093 383.661 43.2084 385.126 44.4738C386.658 45.6726 387.99 47.0379 389.123 48.5697L388.923 44.3739C388.856 42.9087 389.156 41.8763 389.822 41.2769C390.554 40.6109 391.687 40.2779 393.218 40.2779C394.484 40.2779 395.383 40.4777 395.916 40.8773C396.515 41.2769 396.915 41.843 397.115 42.5757C397.314 43.3083 397.414 44.2074 397.414 45.273V83.8348C397.414 84.7672 397.314 85.5997 397.115 86.3323C396.915 87.0649 396.515 87.5977 395.916 87.9307C395.316 88.3303 394.384 88.5301 393.119 88.5301ZM373.838 80.2383C376.502 80.2383 378.933 79.539 381.13 78.1404C383.395 76.7418 385.16 74.877 386.425 72.546C387.757 70.1483 388.423 67.4177 388.423 64.3541C388.423 61.2238 387.724 58.4932 386.325 56.1622C384.993 53.7646 383.195 51.8997 380.931 50.5677C378.733 49.1691 376.302 48.4698 373.638 48.4698C370.508 48.4698 367.777 49.2024 365.446 50.6676C363.182 52.0663 361.383 53.9644 360.051 56.362C358.719 58.7596 358.053 61.4903 358.053 64.5539C358.053 67.5509 358.719 70.2482 360.051 72.6459C361.383 74.9769 363.215 76.8417 365.546 78.2403C367.943 79.5723 370.707 80.2383 373.838 80.2383Z" fill="white"/>
<path d="M45.7313 4.76003L33.8952 28.2555C33.523 28.9943 33.5165 29.8644 33.8776 30.6088L61.3428 87.2295C61.7868 88.1447 62.7146 88.7258 63.7318 88.7258H87.5663C89.5332 88.7258 90.8173 86.6619 89.9482 84.8974L50.4844 4.78131C49.516 2.81532 46.7173 2.80279 45.7313 4.76003Z" fill="#80CBC4"/>
<path d="M19.6745 52.8932L24.7255 62.9199C24.8844 63.2352 24.8871 63.6065 24.7331 63.9242L13.0122 88.0871C12.8228 88.4777 12.4268 88.7257 11.9927 88.7257H1.8213C0.981928 88.7257 0.433937 87.8449 0.80484 87.0919L17.6461 52.9022C18.0593 52.0633 19.2537 52.0579 19.6745 52.8932Z" fill="#80CBC4"/>
<path d="M29.3373 40.0415C29.3373 43.9827 32.5322 47.1776 36.4734 47.1776C32.5322 47.1776 29.3373 50.3726 29.3373 54.3138C29.3373 50.3726 26.1423 47.1776 22.2012 47.1776C26.1423 47.1776 29.3373 43.9827 29.3373 40.0415Z" fill="#80CBC4" stroke="#80CBC4" stroke-width="1.18935" stroke-linecap="round" stroke-linejoin="round"/>
<path d="M257.876 30V21.6H259.292L262.136 27.276L264.968 21.6H266.396V30H265.196V23.7L262.592 28.824H261.668L259.076 23.712V30H257.876ZM270.818 30.144C270.242 30.144 269.73 30.012 269.282 29.748C268.834 29.484 268.482 29.116 268.226 28.644C267.978 28.172 267.854 27.624 267.854 27C267.854 26.36 267.978 25.804 268.226 25.332C268.482 24.852 268.834 24.48 269.282 24.216C269.73 23.944 270.25 23.808 270.842 23.808C271.434 23.808 271.942 23.94 272.366 24.204C272.79 24.468 273.118 24.82 273.35 25.26C273.582 25.692 273.698 26.172 273.698 26.7C273.698 26.78 273.694 26.868 273.686 26.964C273.686 27.052 273.682 27.152 273.674 27.264H268.73V26.412H272.498C272.474 25.908 272.306 25.516 271.994 25.236C271.682 24.948 271.294 24.804 270.83 24.804C270.502 24.804 270.202 24.88 269.93 25.032C269.658 25.176 269.438 25.392 269.27 25.68C269.11 25.96 269.03 26.316 269.03 26.748V27.084C269.03 27.532 269.11 27.912 269.27 28.224C269.438 28.528 269.658 28.76 269.93 28.92C270.202 29.072 270.498 29.148 270.818 29.148C271.202 29.148 271.518 29.064 271.766 28.896C272.014 28.728 272.198 28.5 272.318 28.212H273.518C273.414 28.58 273.238 28.912 272.99 29.208C272.742 29.496 272.434 29.724 272.066 29.892C271.706 30.06 271.29 30.144 270.818 30.144ZM277.719 30.144C277.143 30.144 276.635 30.008 276.195 29.736C275.755 29.456 275.411 29.08 275.163 28.608C274.923 28.128 274.803 27.584 274.803 26.976C274.803 26.36 274.923 25.816 275.163 25.344C275.411 24.872 275.755 24.5 276.195 24.228C276.643 23.948 277.155 23.808 277.731 23.808C278.203 23.808 278.619 23.904 278.979 24.096C279.339 24.28 279.619 24.544 279.819 24.888V21.36H281.019V30H279.939L279.819 29.064C279.699 29.248 279.543 29.424 279.351 29.592C279.159 29.752 278.927 29.884 278.655 29.988C278.383 30.092 278.071 30.144 277.719 30.144ZM277.911 29.1C278.287 29.1 278.619 29.012 278.907 28.836C279.195 28.66 279.415 28.412 279.567 28.092C279.727 27.772 279.807 27.4 279.807 26.976C279.807 26.552 279.727 26.184 279.567 25.872C279.415 25.552 279.195 25.304 278.907 25.128C278.619 24.944 278.287 24.852 277.911 24.852C277.551 24.852 277.227 24.944 276.939 25.128C276.651 25.304 276.427 25.552 276.267 25.872C276.107 26.184 276.027 26.552 276.027 26.976C276.027 27.4 276.107 27.772 276.267 28.092C276.427 28.412 276.651 28.66 276.939 28.836C277.227 29.012 277.551 29.1 277.911 29.1ZM284.676 30V22.584H282.192V21.6H288.372V22.584H285.876V30H284.676ZM291.185 30.144C290.609 30.144 290.097 30.012 289.649 29.748C289.201 29.484 288.849 29.116 288.593 28.644C288.345 28.172 288.221 27.624 288.221 27C288.221 26.36 288.345 25.804 288.593 25.332C288.849 24.852 289.201 24.48 289.649 24.216C290.097 23.944 290.617 23.808 291.209 23.808C291.801 23.808 292.309 23.94 292.733 24.204C293.157 24.468 293.485 24.82 293.717 25.26C293.949 25.692 294.065 26.172 294.065 26.7C294.065 26.78 294.061 26.868 294.053 26.964C294.053 27.052 294.049 27.152 294.041 27.264H289.097V26.412H292.865C292.841 25.908 292.673 25.516 292.361 25.236C292.049 24.948 291.661 24.804 291.197 24.804C290.869 24.804 290.569 24.88 290.297 25.032C290.025 25.176 289.805 25.392 289.637 25.68C289.477 25.96 289.397 26.316 289.397 26.748V27.084C289.397 27.532 289.477 27.912 289.637 28.224C289.805 28.528 290.025 28.76 290.297 28.92C290.569 29.072 290.865 29.148 291.185 29.148C291.569 29.148 291.885 29.064 292.133 28.896C292.381 28.728 292.565 28.5 292.685 28.212H293.885C293.781 28.58 293.605 28.912 293.357 29.208C293.109 29.496 292.801 29.724 292.433 29.892C292.073 30.06 291.657 30.144 291.185 30.144ZM298.194 30.144C297.61 30.144 297.09 30.012 296.634 29.748C296.178 29.476 295.818 29.104 295.554 28.632C295.298 28.16 295.17 27.612 295.17 26.988C295.17 26.356 295.298 25.804 295.554 25.332C295.818 24.852 296.178 24.48 296.634 24.216C297.09 23.944 297.61 23.808 298.194 23.808C298.93 23.808 299.546 24 300.042 24.384C300.538 24.768 300.854 25.288 300.99 25.944H299.742C299.662 25.592 299.478 25.32 299.19 25.128C298.91 24.936 298.574 24.84 298.182 24.84C297.862 24.84 297.566 24.924 297.294 25.092C297.022 25.252 296.802 25.492 296.634 25.812C296.474 26.124 296.394 26.512 296.394 26.976C296.394 27.32 296.442 27.628 296.538 27.9C296.634 28.164 296.762 28.388 296.922 28.572C297.09 28.756 297.282 28.896 297.498 28.992C297.714 29.08 297.942 29.124 298.182 29.124C298.446 29.124 298.682 29.084 298.89 29.004C299.106 28.916 299.286 28.788 299.43 28.62C299.582 28.452 299.686 28.252 299.742 28.02H300.99C300.854 28.66 300.538 29.176 300.042 29.568C299.546 29.952 298.93 30.144 298.194 30.144ZM302.394 30V21.36H303.594V24.936C303.794 24.584 304.07 24.308 304.422 24.108C304.782 23.908 305.178 23.808 305.61 23.808C306.09 23.808 306.502 23.908 306.846 24.108C307.19 24.3 307.454 24.592 307.638 24.984C307.822 25.368 307.914 25.852 307.914 26.436V30H306.726V26.556C306.726 25.996 306.606 25.572 306.366 25.284C306.126 24.988 305.77 24.84 305.298 24.84C304.978 24.84 304.69 24.916 304.434 25.068C304.178 25.22 303.974 25.444 303.822 25.74C303.67 26.028 303.594 26.38 303.594 26.796V30H302.394ZM312.579 30V21.6H315.447C316.119 21.6 316.671 21.712 317.103 21.936C317.535 22.16 317.855 22.46 318.063 22.836C318.271 23.212 318.375 23.64 318.375 24.12C318.375 24.576 318.271 24.996 318.063 25.38C317.863 25.756 317.547 26.06 317.115 26.292C316.683 26.516 316.127 26.628 315.447 26.628H313.779V30H312.579ZM313.779 25.632H315.399C316.031 25.632 316.479 25.496 316.743 25.224C317.015 24.944 317.151 24.576 317.151 24.12C317.151 23.632 317.015 23.256 316.743 22.992C316.479 22.728 316.031 22.596 315.399 22.596H313.779V25.632ZM319.609 30V23.952H320.689L320.797 25.092C320.933 24.82 321.109 24.592 321.325 24.408C321.541 24.216 321.793 24.068 322.081 23.964C322.377 23.86 322.713 23.808 323.089 23.808V25.08H322.657C322.409 25.08 322.173 25.112 321.949 25.176C321.725 25.232 321.525 25.332 321.349 25.476C321.181 25.62 321.049 25.816 320.953 26.064C320.857 26.312 320.809 26.62 320.809 26.988V30H319.609ZM324.275 30V23.952H325.475V30H324.275ZM324.887 22.812C324.655 22.812 324.463 22.74 324.311 22.596C324.167 22.452 324.095 22.268 324.095 22.044C324.095 21.828 324.167 21.652 324.311 21.516C324.463 21.372 324.655 21.3 324.887 21.3C325.111 21.3 325.299 21.372 325.451 21.516C325.603 21.652 325.679 21.828 325.679 22.044C325.679 22.268 325.603 22.452 325.451 22.596C325.299 22.74 325.111 22.812 324.887 22.812ZM328.907 30L326.639 23.952H327.899L329.615 28.848L331.343 23.952H332.579L330.323 30H328.907ZM335.336 30.144C334.84 30.144 334.428 30.06 334.1 29.892C333.772 29.724 333.528 29.5 333.368 29.22C333.208 28.932 333.128 28.624 333.128 28.296C333.128 27.896 333.232 27.556 333.44 27.276C333.648 26.988 333.944 26.768 334.328 26.616C334.712 26.464 335.172 26.388 335.708 26.388H337.28C337.28 26.036 337.228 25.744 337.124 25.512C337.02 25.28 336.864 25.108 336.656 24.996C336.456 24.876 336.2 24.816 335.888 24.816C335.528 24.816 335.22 24.904 334.964 25.08C334.708 25.248 334.548 25.5 334.484 25.836H333.284C333.332 25.412 333.476 25.052 333.716 24.756C333.964 24.452 334.28 24.22 334.664 24.06C335.048 23.892 335.456 23.808 335.888 23.808C336.456 23.808 336.932 23.908 337.316 24.108C337.7 24.308 337.988 24.592 338.18 24.96C338.38 25.32 338.48 25.752 338.48 26.256V30H337.436L337.34 28.98C337.252 29.14 337.148 29.292 337.028 29.436C336.908 29.58 336.764 29.704 336.596 29.808C336.436 29.912 336.248 29.992 336.032 30.048C335.824 30.112 335.592 30.144 335.336 30.144ZM335.564 29.172C335.82 29.172 336.052 29.12 336.26 29.016C336.468 28.912 336.644 28.772 336.788 28.596C336.94 28.412 337.052 28.208 337.124 27.984C337.204 27.752 337.248 27.516 337.256 27.276V27.24H335.828C335.484 27.24 335.204 27.284 334.988 27.372C334.78 27.452 334.628 27.564 334.532 27.708C334.436 27.852 334.388 28.02 334.388 28.212C334.388 28.412 334.432 28.584 334.52 28.728C334.616 28.864 334.752 28.972 334.928 29.052C335.104 29.132 335.316 29.172 335.564 29.172ZM342.378 30C341.994 30 341.662 29.94 341.382 29.82C341.102 29.7 340.886 29.5 340.734 29.22C340.582 28.94 340.506 28.56 340.506 28.08V24.972H339.462V23.952H340.506L340.65 22.44H341.706V23.952H343.422V24.972H341.706V28.092C341.706 28.436 341.778 28.672 341.922 28.8C342.066 28.92 342.314 28.98 342.666 28.98H343.362V30H342.378ZM347.318 30.144C346.742 30.144 346.23 30.012 345.782 29.748C345.334 29.484 344.982 29.116 344.726 28.644C344.478 28.172 344.354 27.624 344.354 27C344.354 26.36 344.478 25.804 344.726 25.332C344.982 24.852 345.334 24.48 345.782 24.216C346.23 23.944 346.75 23.808 347.342 23.808C347.934 23.808 348.442 23.94 348.866 24.204C349.29 24.468 349.618 24.82 349.85 25.26C350.082 25.692 350.198 26.172 350.198 26.7C350.198 26.78 350.194 26.868 350.186 26.964C350.186 27.052 350.182 27.152 350.174 27.264H345.23V26.412H348.998C348.974 25.908 348.806 25.516 348.494 25.236C348.182 24.948 347.794 24.804 347.33 24.804C347.002 24.804 346.702 24.88 346.43 25.032C346.158 25.176 345.938 25.392 345.77 25.68C345.61 25.96 345.53 26.316 345.53 26.748V27.084C345.53 27.532 345.61 27.912 345.77 28.224C345.938 28.528 346.158 28.76 346.43 28.92C346.702 29.072 346.998 29.148 347.318 29.148C347.702 29.148 348.018 29.064 348.266 28.896C348.514 28.728 348.698 28.5 348.818 28.212H350.018C349.914 28.58 349.738 28.912 349.49 29.208C349.242 29.496 348.934 29.724 348.566 29.892C348.206 30.06 347.79 30.144 347.318 30.144ZM354.661 30V21.6H355.861V29.052H359.701V30H354.661ZM361.13 30V23.952H362.33V30H361.13ZM361.742 22.812C361.51 22.812 361.318 22.74 361.166 22.596C361.022 22.452 360.95 22.268 360.95 22.044C360.95 21.828 361.022 21.652 361.166 21.516C361.318 21.372 361.51 21.3 361.742 21.3C361.966 21.3 362.154 21.372 362.306 21.516C362.458 21.652 362.534 21.828 362.534 22.044C362.534 22.268 362.458 22.452 362.306 22.596C362.154 22.74 361.966 22.812 361.742 22.812ZM364.046 30V23.952H365.126L365.21 24.804C365.402 24.492 365.658 24.248 365.978 24.072C366.298 23.896 366.658 23.808 367.058 23.808C367.362 23.808 367.638 23.852 367.886 23.94C368.134 24.02 368.354 24.144 368.546 24.312C368.738 24.48 368.894 24.688 369.014 24.936C369.23 24.584 369.518 24.308 369.878 24.108C370.246 23.908 370.634 23.808 371.042 23.808C371.53 23.808 371.95 23.908 372.302 24.108C372.654 24.3 372.922 24.592 373.106 24.984C373.29 25.368 373.382 25.848 373.382 26.424V30H372.194V26.544C372.194 25.984 372.078 25.56 371.846 25.272C371.622 24.984 371.29 24.84 370.85 24.84C370.554 24.84 370.29 24.916 370.058 25.068C369.826 25.22 369.642 25.44 369.506 25.728C369.378 26.016 369.314 26.368 369.314 26.784V30H368.114V26.544C368.114 25.984 367.998 25.56 367.766 25.272C367.542 24.984 367.21 24.84 366.77 24.84C366.49 24.84 366.234 24.916 366.002 25.068C365.77 25.22 365.586 25.44 365.45 25.728C365.314 26.016 365.246 26.368 365.246 26.784V30H364.046ZM375.017 30V23.952H376.217V30H375.017ZM375.629 22.812C375.397 22.812 375.205 22.74 375.053 22.596C374.909 22.452 374.837 22.268 374.837 22.044C374.837 21.828 374.909 21.652 375.053 21.516C375.205 21.372 375.397 21.3 375.629 21.3C375.853 21.3 376.041 21.372 376.193 21.516C376.345 21.652 376.421 21.828 376.421 22.044C376.421 22.268 376.345 22.452 376.193 22.596C376.041 22.74 375.853 22.812 375.629 22.812ZM380.429 30C380.045 30 379.713 29.94 379.433 29.82C379.153 29.7 378.937 29.5 378.785 29.22C378.633 28.94 378.557 28.56 378.557 28.08V24.972H377.513V23.952H378.557L378.701 22.44H379.757V23.952H381.473V24.972H379.757V28.092C379.757 28.436 379.829 28.672 379.973 28.8C380.117 28.92 380.365 28.98 380.717 28.98H381.413V30H380.429ZM385.368 30.144C384.792 30.144 384.28 30.012 383.832 29.748C383.384 29.484 383.032 29.116 382.776 28.644C382.528 28.172 382.404 27.624 382.404 27C382.404 26.36 382.528 25.804 382.776 25.332C383.032 24.852 383.384 24.48 383.832 24.216C384.28 23.944 384.8 23.808 385.392 23.808C385.984 23.808 386.492 23.94 386.916 24.204C387.34 24.468 387.668 24.82 387.9 25.26C388.132 25.692 388.248 26.172 388.248 26.7C388.248 26.78 388.244 26.868 388.236 26.964C388.236 27.052 388.232 27.152 388.224 27.264H383.28V26.412H387.048C387.024 25.908 386.856 25.516 386.544 25.236C386.232 24.948 385.844 24.804 385.38 24.804C385.052 24.804 384.752 24.88 384.48 25.032C384.208 25.176 383.988 25.392 383.82 25.68C383.66 25.96 383.58 26.316 383.58 26.748V27.084C383.58 27.532 383.66 27.912 383.82 28.224C383.988 28.528 384.208 28.76 384.48 28.92C384.752 29.072 385.048 29.148 385.368 29.148C385.752 29.148 386.068 29.064 386.316 28.896C386.564 28.728 386.748 28.5 386.868 28.212H388.068C387.964 28.58 387.788 28.912 387.54 29.208C387.292 29.496 386.984 29.724 386.616 29.892C386.256 30.06 385.84 30.144 385.368 30.144ZM392.27 30.144C391.694 30.144 391.186 30.008 390.746 29.736C390.306 29.456 389.962 29.08 389.714 28.608C389.474 28.128 389.354 27.584 389.354 26.976C389.354 26.36 389.474 25.816 389.714 25.344C389.962 24.872 390.306 24.5 390.746 24.228C391.194 23.948 391.706 23.808 392.282 23.808C392.754 23.808 393.17 23.904 393.53 24.096C393.89 24.28 394.17 24.544 394.37 24.888V21.36H395.57V30H394.49L394.37 29.064C394.25 29.248 394.094 29.424 393.902 29.592C393.71 29.752 393.478 29.884 393.206 29.988C392.934 30.092 392.622 30.144 392.27 30.144ZM392.462 29.1C392.838 29.1 393.17 29.012 393.458 28.836C393.746 28.66 393.966 28.412 394.118 28.092C394.278 27.772 394.358 27.4 394.358 26.976C394.358 26.552 394.278 26.184 394.118 25.872C393.966 25.552 393.746 25.304 393.458 25.128C393.17 24.944 392.838 24.852 392.462 24.852C392.102 24.852 391.778 24.944 391.49 25.128C391.202 25.304 390.978 25.552 390.818 25.872C390.658 26.184 390.578 26.552 390.578 26.976C390.578 27.4 390.658 27.772 390.818 28.092C390.978 28.412 391.202 28.66 391.49 28.836C391.778 29.012 392.102 29.1 392.462 29.1Z" fill="white"/>
</svg>
